<mxfile host="app.diagrams.net" modified="2024-05-03T17:12:11.672Z" agent="Mozilla/5.0 (X11; Linux x86_64) AppleWebKit/537.36 (KHTML, like Gecko) Chrome/124.0.0.0 Safari/537.36" etag="QX_kuxAttZ2Y_gt6r6f4" version="24.3.0" type="device">
  <diagram name="PÃ¡gina-1" id="4QZvdcZJ5oB2tHuWdFdc">
    <mxGraphModel dx="1243" dy="716" grid="1" gridSize="10" guides="1" tooltips="1" connect="1" arrows="1" fold="1" page="1" pageScale="1" pageWidth="827" pageHeight="1169" math="0" shadow="0">
      <root>
        <mxCell id="0" />
        <mxCell id="1" parent="0" />
        <mxCell id="Qbz0tX9M-Izm4d5-4zGy-4" value="AMARI Callbox (gNB)" style="swimlane;whiteSpace=wrap;html=1;startSize=40;" parent="1" vertex="1">
          <mxGeometry x="264.75" y="270" width="160" height="160" as="geometry" />
        </mxCell>
        <mxCell id="Qbz0tX9M-Izm4d5-4zGy-5" value="Amarisoft gNB software" style="rounded=1;whiteSpace=wrap;html=1;" parent="Qbz0tX9M-Izm4d5-4zGy-4" vertex="1">
          <mxGeometry x="20" y="70" width="120" height="60" as="geometry" />
        </mxCell>
        <mxCell id="Qbz0tX9M-Izm4d5-4zGy-7" value="" style="endArrow=none;html=1;rounded=0;entryX=0.5;entryY=1;entryDx=0;entryDy=0;" parent="1" target="Qbz0tX9M-Izm4d5-4zGy-4" edge="1">
          <mxGeometry width="50" height="50" relative="1" as="geometry">
            <mxPoint x="344.75" y="470" as="sourcePoint" />
            <mxPoint x="370.75" y="450" as="targetPoint" />
          </mxGeometry>
        </mxCell>
        <mxCell id="Qbz0tX9M-Izm4d5-4zGy-8" value="UE Jetson Nano" style="swimlane;whiteSpace=wrap;html=1;startSize=40;" parent="1" vertex="1">
          <mxGeometry x="160" y="580" width="141" height="135" as="geometry" />
        </mxCell>
        <mxCell id="Qbz0tX9M-Izm4d5-4zGy-9" value="Ubuntu 18.04.6 LTS&lt;div&gt;Interface &lt;i&gt;usb1&lt;/i&gt;&lt;/div&gt;&lt;div&gt;IP given by DHCP&lt;/div&gt;" style="rounded=1;whiteSpace=wrap;html=1;" parent="Qbz0tX9M-Izm4d5-4zGy-8" vertex="1">
          <mxGeometry x="10.5" y="60" width="120" height="60" as="geometry" />
        </mxCell>
        <mxCell id="Qbz0tX9M-Izm4d5-4zGy-11" value="&lt;span style=&quot;font-weight: 700;&quot;&gt;&lt;font style=&quot;font-size: 14px;&quot;&gt;Quectel RM502Q-AE&lt;/font&gt;&lt;/span&gt;" style="rounded=1;whiteSpace=wrap;html=1;" parent="1" vertex="1">
          <mxGeometry x="368" y="637.5" width="152" height="65" as="geometry" />
        </mxCell>
        <mxCell id="Qbz0tX9M-Izm4d5-4zGy-12" style="edgeStyle=orthogonalEdgeStyle;rounded=0;orthogonalLoop=1;jettySize=auto;html=1;entryX=0;entryY=0.5;entryDx=0;entryDy=0;endArrow=none;endFill=0;" parent="1" edge="1">
          <mxGeometry relative="1" as="geometry">
            <mxPoint x="301" y="669.75" as="sourcePoint" />
            <mxPoint x="369" y="669.75" as="targetPoint" />
          </mxGeometry>
        </mxCell>
        <mxCell id="Qbz0tX9M-Izm4d5-4zGy-13" value="USB" style="edgeLabel;html=1;align=center;verticalAlign=middle;resizable=0;points=[];" parent="Qbz0tX9M-Izm4d5-4zGy-12" vertex="1" connectable="0">
          <mxGeometry x="-0.0618" relative="1" as="geometry">
            <mxPoint x="1" as="offset" />
          </mxGeometry>
        </mxCell>
        <mxCell id="Qbz0tX9M-Izm4d5-4zGy-14" value="Raspberry Pi 5" style="swimlane;whiteSpace=wrap;html=1;startSize=40;" parent="1" vertex="1">
          <mxGeometry x="640" y="270" width="160" height="160" as="geometry" />
        </mxCell>
        <mxCell id="Qbz0tX9M-Izm4d5-4zGy-15" value="UPF2" style="rounded=1;whiteSpace=wrap;html=1;" parent="Qbz0tX9M-Izm4d5-4zGy-14" vertex="1">
          <mxGeometry x="47.5" y="85" width="65" height="30" as="geometry" />
        </mxCell>
        <mxCell id="Qbz0tX9M-Izm4d5-4zGy-27" style="edgeStyle=orthogonalEdgeStyle;rounded=0;orthogonalLoop=1;jettySize=auto;html=1;startArrow=classic;startFill=1;" parent="1" source="Qbz0tX9M-Izm4d5-4zGy-25" target="Qbz0tX9M-Izm4d5-4zGy-5" edge="1">
          <mxGeometry relative="1" as="geometry" />
        </mxCell>
        <mxCell id="Qbz0tX9M-Izm4d5-4zGy-28" style="edgeStyle=orthogonalEdgeStyle;rounded=0;orthogonalLoop=1;jettySize=auto;html=1;entryX=0;entryY=0.5;entryDx=0;entryDy=0;startArrow=classic;startFill=1;" parent="1" source="Qbz0tX9M-Izm4d5-4zGy-25" target="Qbz0tX9M-Izm4d5-4zGy-15" edge="1">
          <mxGeometry relative="1" as="geometry" />
        </mxCell>
        <mxCell id="Qbz0tX9M-Izm4d5-4zGy-25" value="ogstun interface for edge APN" style="image;aspect=fixed;perimeter=ellipsePerimeter;html=1;align=center;shadow=0;dashed=0;spacingTop=3;image=img/lib/active_directory/tunnel.svg;rotation=0;" parent="1" vertex="1">
          <mxGeometry x="480" y="358.93" width="110.74" height="22.14" as="geometry" />
        </mxCell>
        <mxCell id="Qbz0tX9M-Izm4d5-4zGy-6" value="" style="shape=image;verticalLabelPosition=bottom;labelBackgroundColor=default;verticalAlign=top;aspect=fixed;imageAspect=0;image=https://ingun.com/media/CMS%20Media/campaigns/5G/campaign-5G-icon-antenne_M-min.png;clipPath=inset(23.78% 31% 24.67% 31.33%);" parent="1" vertex="1">
          <mxGeometry x="300.75" y="470" width="87.67" height="90" as="geometry" />
        </mxCell>
        <mxCell id="Qbz0tX9M-Izm4d5-4zGy-10" value="" style="shape=image;verticalLabelPosition=bottom;labelBackgroundColor=default;verticalAlign=top;aspect=fixed;imageAspect=0;image=https://icons.veryicon.com/png/o/miscellaneous/medium-thin-linear-icon/signal-28.png;rotation=-45;" parent="1" vertex="1">
          <mxGeometry x="380" y="560" width="60" height="60" as="geometry" />
        </mxCell>
        <mxCell id="Iy88VGhK-Bo8yXWi1SWr-1" value="Jetson AGX" style="swimlane;whiteSpace=wrap;html=1;startSize=40;" vertex="1" parent="1">
          <mxGeometry x="870" y="270" width="160" height="160" as="geometry" />
        </mxCell>
        <mxCell id="Iy88VGhK-Bo8yXWi1SWr-2" value="jetson-inference" style="rounded=1;whiteSpace=wrap;html=1;" vertex="1" parent="Iy88VGhK-Bo8yXWi1SWr-1">
          <mxGeometry x="28.75" y="85" width="102.5" height="30" as="geometry" />
        </mxCell>
        <mxCell id="Iy88VGhK-Bo8yXWi1SWr-3" value="" style="endArrow=none;html=1;rounded=0;" edge="1" parent="1">
          <mxGeometry width="50" height="50" relative="1" as="geometry">
            <mxPoint x="800" y="370" as="sourcePoint" />
            <mxPoint x="870" y="370" as="targetPoint" />
          </mxGeometry>
        </mxCell>
        <mxCell id="Iy88VGhK-Bo8yXWi1SWr-4" value="Ethernet" style="edgeLabel;html=1;align=center;verticalAlign=middle;resizable=0;points=[];" vertex="1" connectable="0" parent="Iy88VGhK-Bo8yXWi1SWr-3">
          <mxGeometry x="0.0384" relative="1" as="geometry">
            <mxPoint as="offset" />
          </mxGeometry>
        </mxCell>
        <mxCell id="Iy88VGhK-Bo8yXWi1SWr-5" value="Edge" style="swimlane;whiteSpace=wrap;html=1;" vertex="1" parent="1">
          <mxGeometry x="627" y="240" width="413" height="200" as="geometry" />
        </mxCell>
      </root>
    </mxGraphModel>
  </diagram>
</mxfile>
